<?xml version="1.0" standalone="no"?>
<!DOCTYPE svg PUBLIC "-//W3C//DTD SVG 20010904//EN"
 "http://www.w3.org/TR/2001/REC-SVG-20010904/DTD/svg10.dtd">
<svg version="1.0" xmlns="http://www.w3.org/2000/svg"
 width="512.000000pt" height="512.000000pt" viewBox="0 0 512.000000 512.000000"
 preserveAspectRatio="xMidYMid meet">
<metadata>
Created by potrace 1.14, written by Peter Selinger 2001-2017
</metadata>
<g transform="translate(0.000000,512.000000) scale(0.100000,-0.100000)"
fill="#000000" stroke="none">
<path d="M1260 4703 c0 -5 -12 -8 -27 -7 -16 1 -32 -2 -38 -5 -5 -4 -17 -7
-25 -6 -8 0 -22 -7 -31 -17 -9 -10 -19 -18 -23 -18 -7 0 -76 -69 -76 -76 0 -3
6 -2 13 1 6 4 4 0 -5 -8 -10 -8 -19 -27 -21 -44 -2 -16 -6 -34 -10 -40 -4 -7
-3 -14 3 -18 6 -4 7 -11 4 -17 -10 -16 -11 -59 -2 -86 5 -14 4 -21 -1 -17 -6
3 -9 -4 -8 -15 1 -11 5 -20 10 -20 4 0 5 -6 0 -12 -11 -19 -10 -88 2 -88 5 0
4 -4 -4 -9 -9 -6 -10 -11 -2 -15 6 -4 8 -12 5 -18 -10 -16 -11 -99 -2 -126 5
-14 4 -21 -1 -17 -6 3 -9 -4 -8 -15 1 -11 5 -20 10 -20 4 0 5 -6 0 -12 -11
-19 -10 -82 2 -90 6 -5 5 -8 -4 -8 -10 0 -11 -3 -3 -13 6 -7 7 -18 2 -27 -4
-7 -4 -24 1 -37 5 -15 5 -22 0 -18 -6 3 -9 -4 -8 -15 1 -11 5 -20 10 -20 4 0
5 -6 0 -12 -11 -19 -10 -88 2 -88 5 0 4 -4 -4 -9 -7 -5 -9 -11 -4 -14 7 -4 10
-62 3 -62 -1 0 -3 -12 -5 -27 -2 -16 1 -28 6 -28 6 0 7 -6 2 -12 -11 -19 -10
-88 2 -88 5 0 4 -4 -4 -9 -7 -5 -9 -11 -4 -14 7 -4 10 -62 3 -62 -1 0 -3 -12
-5 -27 -2 -16 1 -28 6 -28 6 0 7 -6 2 -12 -10 -17 -11 -29 -1 -56 5 -14 4 -21
-1 -17 -6 3 -9 -4 -8 -15 1 -11 5 -20 10 -20 5 0 5 -6 -2 -13 -8 -10 -7 -17 2
-27 6 -7 7 -10 1 -7 -13 7 -12 -53 1 -73 5 -8 4 -11 -3 -6 -7 4 -10 -1 -9 -14
1 -11 5 -20 10 -20 5 0 5 -6 -2 -13 -8 -10 -7 -17 2 -27 6 -7 7 -10 1 -7 -12
7 -11 -94 2 -114 4 -7 3 -10 -4 -5 -7 4 -10 -1 -9 -14 1 -11 5 -20 10 -20 4 0
5 -6 0 -12 -11 -19 -10 -88 2 -88 5 0 4 -4 -4 -9 -7 -5 -9 -11 -4 -14 7 -4 10
-62 3 -62 -1 0 -3 -12 -5 -27 -2 -16 1 -28 6 -28 6 0 7 -6 2 -12 -11 -19 -10
-88 2 -88 5 0 4 -4 -4 -9 -7 -5 -9 -11 -4 -14 7 -4 10 -62 3 -62 -1 0 -3 -12
-5 -27 -2 -16 1 -28 7 -28 7 0 7 -4 0 -12 -12 -15 -12 -25 -1 -56 6 -14 5 -21
0 -17 -6 3 -9 -4 -8 -15 1 -11 5 -20 10 -20 5 0 5 -6 -2 -13 -8 -10 -7 -17 2
-27 6 -7 7 -10 1 -7 -13 7 -12 -53 1 -73 5 -8 4 -11 -1 -7 -5 3 -9 -12 -9 -33
0 -23 4 -36 10 -32 5 3 4 -1 -2 -10 -7 -8 -11 -17 -8 -20 3 -2 7 -22 10 -44 2
-21 12 -45 22 -51 9 -7 14 -13 10 -13 -4 0 -2 -10 5 -22 7 -13 11 -26 10 -30
-1 -4 6 -4 15 -1 11 4 14 3 9 -5 -4 -8 -1 -12 10 -12 10 0 15 -3 12 -6 -8 -7
35 -51 45 -47 4 2 7 -1 7 -6 0 -13 70 -81 83 -81 4 0 6 -3 4 -7 -6 -10 39 -53
47 -46 3 4 6 -1 6 -11 0 -9 5 -14 10 -11 6 3 10 -1 10 -9 0 -8 9 -18 20 -21
11 -4 18 -10 16 -14 -5 -8 30 -42 36 -35 3 2 11 -7 18 -21 7 -14 18 -25 24
-25 6 0 20 -14 31 -30 11 -17 28 -33 37 -36 10 -3 17 -11 15 -17 -1 -7 4 -11
11 -10 6 2 12 -4 12 -13 0 -8 4 -12 10 -9 5 3 10 1 10 -5 0 -14 25 -40 39 -40
6 0 11 -4 11 -9 0 -12 58 -71 71 -71 5 0 8 -3 6 -8 -6 -9 19 -33 27 -25 3 4 6
1 6 -6 0 -6 16 -25 35 -42 19 -17 32 -36 28 -42 -3 -5 -1 -7 4 -4 6 4 21 -7
34 -23 13 -16 30 -30 38 -30 8 0 11 -3 8 -6 -3 -4 5 -15 18 -26 14 -11 23 -24
19 -29 -3 -5 -2 -8 3 -7 14 5 83 -64 76 -75 -4 -6 1 -8 10 -4 10 3 17 2 17 -3
0 -12 159 -170 171 -170 6 0 7 -5 4 -10 -3 -6 1 -10 9 -10 9 0 16 -9 16 -21 0
-11 4 -18 9 -14 5 3 18 -6 29 -20 11 -14 26 -25 33 -25 7 0 10 -2 7 -5 -7 -7
55 -73 63 -69 3 2 12 -8 19 -21 7 -14 19 -25 26 -25 6 0 15 -7 18 -16 3 -8 10
-12 16 -9 5 3 10 1 10 -4 0 -6 8 -11 18 -11 10 0 22 -3 26 -7 10 -10 146 -10
139 -1 -2 5 5 8 16 8 12 0 21 5 21 11 0 5 5 7 10 4 6 -3 10 -2 10 4 0 6 11 16
24 23 14 7 26 18 26 23 1 6 5 10 8 9 4 0 17 10 29 23 12 12 20 23 17 23 -3 0
1 6 8 14 7 8 15 13 18 12 3 -2 13 5 23 16 9 10 14 18 10 18 -5 0 5 9 20 19 16
10 28 21 28 25 -1 3 2 7 6 9 12 4 49 42 47 47 -1 3 4 11 12 18 8 7 14 10 14 7
0 -3 8 3 18 13 11 9 17 20 15 25 -2 4 2 7 9 7 7 0 22 13 33 29 10 16 22 29 25
27 5 -2 59 51 60 59 0 3 3 5 6 4 4 0 15 12 25 28 10 15 19 25 19 21 0 -4 11 3
23 15 13 12 23 24 23 27 -1 3 2 6 6 8 13 5 64 57 62 62 -2 3 11 15 27 25 16
11 29 26 29 33 0 7 3 11 8 9 4 -2 15 4 25 15 9 10 15 18 12 18 -3 0 0 6 7 14
7 8 15 13 18 12 5 -2 56 47 52 52 -1 1 0 1 2 0 2 -2 20 17 40 40 20 24 36 42
36 39 0 -3 13 6 28 21 15 15 26 30 24 35 -2 4 4 7 12 7 8 0 18 9 21 20 4 11 9
19 13 17 7 -4 42 28 42 38 0 3 3 6 7 8 12 4 49 42 47 47 -1 3 4 11 12 18 8 7
14 10 14 7 0 -3 8 3 18 13 11 9 17 20 16 23 -2 4 6 9 17 12 12 3 18 10 15 16
-4 5 3 12 14 16 11 3 20 13 20 21 0 8 3 14 8 12 4 -2 19 9 34 24 15 15 24 28
22 28 -3 0 16 18 41 40 25 22 43 40 39 40 -4 0 4 10 18 23 14 12 30 36 37 52
17 44 29 132 20 146 -4 7 -5 18 -2 23 9 15 10 57 1 62 -4 3 -3 15 1 27 5 14 5
30 0 40 -6 9 -6 17 -2 17 10 0 9 83 -1 99 -4 6 -4 11 1 11 9 0 8 134 -2 149
-3 6 -3 11 2 11 9 0 8 134 -2 149 -3 6 -3 11 2 11 9 0 8 134 -2 149 -3 6 -3
11 2 11 9 0 9 118 0 127 -3 3 -2 15 3 27 4 13 4 29 -1 39 -6 9 -6 17 -2 17 9
0 8 148 -1 157 -2 3 -1 15 4 27 4 13 4 29 -1 39 -6 9 -6 17 -2 17 9 0 8 148
-1 157 -2 3 -1 15 4 27 4 13 4 29 -1 39 -6 9 -6 17 -2 17 10 0 9 83 -1 99 -4
6 -4 11 1 11 9 0 8 134 -2 149 -3 6 -3 11 2 11 9 0 8 134 -2 149 -3 6 -3 11 2
11 9 0 8 134 -2 149 -3 6 -3 11 2 11 9 0 9 118 0 127 -3 3 -2 15 3 27 4 13 4
29 -1 39 -6 9 -6 17 -2 17 9 0 8 138 -1 147 -2 3 -1 15 4 27 4 13 4 29 -1 39
-6 9 -9 23 -8 29 3 19 -22 78 -32 78 -5 0 -8 3 -7 8 4 9 -39 52 -52 52 -5 0
-10 4 -10 8 0 11 -46 32 -70 32 -11 0 -20 5 -20 10 0 7 -6 7 -20 0 -13 -7 -20
-7 -20 -1 0 7 -8 7 -24 1 -13 -5 -27 -6 -30 -3 -3 4 -6 2 -6 -4 0 -5 -7 -10
-15 -11 -8 -1 -22 -3 -30 -4 -8 -1 -15 -8 -15 -16 0 -9 -3 -12 -6 -9 -4 4 -31
-18 -60 -48 -30 -30 -54 -52 -54 -49 0 3 -12 -9 -27 -28 -38 -45 -103 -108
-104 -100 0 4 -4 -3 -10 -16 -5 -13 -13 -21 -18 -17 -5 3 -12 -4 -16 -15 -3
-11 -13 -20 -21 -20 -8 0 -12 -4 -9 -10 3 -5 2 -10 -4 -10 -6 0 -21 -11 -35
-25 -14 -14 -23 -25 -20 -25 3 0 -7 -11 -22 -25 -15 -14 -32 -25 -37 -25 -6 0
-7 -3 -4 -7 4 -3 -8 -17 -25 -30 -18 -12 -28 -23 -22 -23 5 0 -3 -8 -19 -18
-15 -10 -25 -20 -23 -23 2 -2 -2 -10 -10 -17 -8 -7 -14 -9 -14 -5 0 4 -11 -8
-25 -27 -14 -19 -25 -31 -25 -27 0 4 -6 2 -14 -5 -8 -7 -13 -15 -12 -18 1 -3
-8 -15 -21 -27 -13 -12 -23 -19 -23 -16 0 4 -11 -7 -23 -25 -13 -17 -27 -29
-30 -25 -4 3 -7 -1 -7 -11 0 -9 -3 -15 -7 -13 -5 3 -14 -1 -21 -9 -7 -8 -10
-14 -7 -14 3 0 0 -6 -7 -14 -7 -8 -15 -12 -17 -10 -2 2 -15 -11 -28 -28 -12
-18 -23 -28 -23 -23 0 5 -11 -6 -25 -25 -14 -19 -25 -31 -25 -27 0 4 -6 2 -14
-5 -8 -7 -12 -16 -9 -20 2 -5 0 -8 -5 -8 -14 0 -62 -47 -55 -54 4 -3 -1 -6
-11 -6 -9 0 -15 -4 -12 -8 2 -4 -11 -18 -30 -31 -18 -13 -32 -26 -31 -30 3 -6
-31 -42 -48 -51 -6 -3 -9 -8 -7 -12 1 -5 -5 -8 -13 -8 -8 0 -15 -7 -15 -16 0
-8 -4 -12 -10 -9 -5 3 -10 1 -10 -4 0 -6 -4 -11 -9 -11 -13 0 -71 56 -71 70 0
6 -3 9 -7 7 -10 -6 -34 19 -26 27 4 3 1 6 -4 6 -14 0 -149 132 -145 143 1 4
-2 7 -6 7 -15 0 -52 36 -52 50 0 7 -3 11 -6 7 -8 -8 -44 25 -38 35 3 4 0 8 -5
8 -6 0 -25 15 -42 33 -17 17 -35 31 -40 30 -5 -2 -8 1 -6 6 1 5 -36 47 -83 92
-47 45 -84 86 -83 91 2 4 -1 8 -5 8 -13 0 -137 122 -134 132 1 4 -2 8 -7 8
-14 0 -191 178 -191 192 0 6 -3 8 -7 5 -3 -4 -19 9 -36 28 -16 19 -33 32 -38
29 -5 -3 -9 -2 -8 3 3 19 -2 34 -10 29 -5 -3 -17 5 -27 19 -10 13 -22 21 -27
18 -6 -4 -7 -1 -3 6 9 13 -23 43 -36 35 -5 -3 -8 0 -8 6 0 15 -26 41 -34 33
-3 -4 -6 -1 -6 6 0 7 -4 9 -10 6 -5 -3 -10 -1 -10 5 0 6 -4 8 -10 5 -5 -3 -10
-2 -10 4 0 6 -6 8 -14 5 -8 -3 -24 -1 -35 6 -12 6 -21 7 -21 3z"/>
</g>
</svg>
