<?xml version="1.0" standalone="no"?>
<!DOCTYPE svg PUBLIC "-//W3C//DTD SVG 20010904//EN"
 "http://www.w3.org/TR/2001/REC-SVG-20010904/DTD/svg10.dtd">
<svg version="1.0" xmlns="http://www.w3.org/2000/svg"
 width="512.000000pt" height="512.000000pt" viewBox="0 0 512.000000 512.000000"
 preserveAspectRatio="xMidYMid meet">
<metadata>
Created by potrace 1.14, written by Peter Selinger 2001-2017
</metadata>
<g transform="translate(0.000000,512.000000) scale(0.100000,-0.100000)"
fill="#000000" stroke="none">
<path d="M767 5106 c-91 -34 -162 -106 -186 -191 -9 -30 -11 -442 -9 -1590 l3
-1550 24 -46 c17 -33 256 -279 850 -872 l826 -826 59 -17 c76 -21 150 -14 214
21 34 19 289 268 864 843 724 726 818 823 834 867 18 48 19 110 19 1605 l0
1555 -23 47 c-72 145 -245 207 -383 138 -31 -15 -251 -229 -741 -718 l-697
-696 -83 79 c-45 44 -360 356 -698 693 -338 338 -634 625 -658 639 -54 32
-157 41 -215 19z m2426 -1068 c424 424 775 772 780 772 4 0 7 -665 7 -1477 l0
-1478 -782 -782 -783 -783 -782 782 -783 783 0 1490 0 1490 785 -785 785 -785
773 773z"/>
</g>
</svg>
